<?xml version="1.0" standalone="no"?><!DOCTYPE svg PUBLIC "-//W3C//DTD SVG 1.1//EN" "http://www.w3.org/Graphics/SVG/1.1/DTD/svg11.dtd"><svg t="1600419958054" class="icon" viewBox="0 0 1024 1024" version="1.1" xmlns="http://www.w3.org/2000/svg" p-id="4607" xmlns:xlink="http://www.w3.org/1999/xlink" width="200" height="200"><defs><style type="text/css"></style></defs><path d="M511.7 5.8C233.2 5.8 6.6 232.4 6.6 510.9c0 278.5 226.6 505.1 505.1 505.1 278.5 0 505.1-226.6 505.1-505.1C1016.9 232.4 790.3 5.8 511.7 5.8zM511.7 965.5c-250.7 0-454.6-203.9-454.6-454.6 0-250.7 203.9-454.6 454.6-454.6 250.7 0 454.6 203.9 454.6 454.6C966.4 761.6 762.4 965.5 511.7 965.5z" p-id="4608"></path><path d="M537 458.6 537 152l-51 0 0 308.6c-20 10.3-35.7 31.8-35.7 56.9 0 35 28.5 63.6 63.5 63.6 19.7 0 37.2-10.1 48.8-23.1L816 558l0-51L576.2 507C572.5 485 558 466.7 537 458.6z" p-id="4609"></path></svg>