<?xml version="1.0" standalone="no"?><!DOCTYPE svg PUBLIC "-//W3C//DTD SVG 1.1//EN" "http://www.w3.org/Graphics/SVG/1.1/DTD/svg11.dtd"><svg t="1600223918981" class="icon" viewBox="0 0 1024 1024" version="1.1" xmlns="http://www.w3.org/2000/svg" p-id="6602" xmlns:xlink="http://www.w3.org/1999/xlink" width="200" height="200"><defs><style type="text/css"></style></defs><path d="M894.162051 655.885128l-111.432205-110.276923a39.673436 39.673436 0 0 0-56.109949 0 38.833231 38.833231 0 0 0 0 55.401026l111.432206 110.539487a136.034462 136.034462 0 0 1 0 193.772308 139.369026 139.369026 0 0 1-195.794052 0l-210.051282-207.95077a136.218256 136.218256 0 0 1 0-193.772307 138.108718 138.108718 0 0 1 76.616205-38.596923 39.148308 39.148308 0 0 0 33.161847-44.635898 39.804718 39.804718 0 0 0-45.239795-33.083077 217.928205 217.928205 0 0 0-120.648205 60.652308 214.514872 214.514872 0 0 0 0 305.099487l210.051282 207.688205a219.057231 219.057231 0 0 0 308.013948 0 213.963487 213.963487 0 0 0 0-304.836923zM185.554051 312.451282a135.981949 135.981949 0 0 1 0-193.772308 139.369026 139.369026 0 0 1 195.794052 0l210.051282 207.688205a136.795897 136.795897 0 0 1-76.616206 232.369231 39.384615 39.384615 0 0 0 5.986462 78.244103 48.101744 48.101744 0 0 0 6.091487-0.525128 218.190769 218.190769 0 0 0 120.648205-60.652308 214.278564 214.278564 0 0 0 0-304.836923l-210.051282-207.950769a219.057231 219.057231 0 0 0-308.013948 0 214.278564 214.278564 0 0 0 0 305.099487l111.405948 110.276923a40.172308 40.172308 0 0 0 56.109949 0 39.095795 39.095795 0 0 0 0-55.66359z" p-id="6603"></path></svg>