<?xml version="1.0" standalone="no"?><!DOCTYPE svg PUBLIC "-//W3C//DTD SVG 1.1//EN" "http://www.w3.org/Graphics/SVG/1.1/DTD/svg11.dtd"><svg t="1600419692199" class="icon" viewBox="0 0 1024 1024" version="1.1" xmlns="http://www.w3.org/2000/svg" p-id="2609" xmlns:xlink="http://www.w3.org/1999/xlink" width="200" height="200"><defs><style type="text/css"></style></defs><path d="M791.893176 521.385764 791.893176 118.484531 510.629281 118.484531 510.629281 63.777559l284.46582 0c27.833929 0 50.481741 22.645766 50.481741 50.483788l0 407.124418L791.893176 521.385764 791.893176 521.385764z" p-id="2610"></path><path d="M115.799888 852.441693c-27.77867 0.086981-50.432623-22.490224-50.52472-50.335409L65.275167 114.903983c-0.085958-27.839045 20.392446-50.554396 48.171116-50.637284l274.348392-0.272199 0.160659 54.713113-269.097808 0.257873-0.010233 678.752862 438.724113-0.277316 9.241478 0.172939 0.064468 9.188266 0.13917 46.343491L115.799888 852.441693 115.799888 852.441693z" p-id="2611"></path><path d="M900.055618 847.823512c35.056424-33.422204 42.417065-66.768683 42.417065-113.419166 0-95.934956-78.056774-173.997869-173.999916-173.997869l-0.441045 0c-95.708805 0-173.568081 77.860299-173.568081 173.567058l0 0.430812c0 95.954399 78.05268 174.005033 174.009126 174.005033 30.346145 0 61.990866-9.165754 89.909729-25.951045l76.584236 76.579119 38.428218-38.417985L900.055618 847.823512zM768.030699 853.606215c-65.973574 0-119.642914-53.671387-119.642914-119.642914s53.665247-119.632681 119.642914-119.632681c65.962318 0 119.631658 53.661154 119.631658 119.632681S833.998133 853.606215 768.030699 853.606215z" p-id="2612"></path><path d="M596.667843 428.464445c16.087397 0 29.123294-13.06455 29.123294-29.155017 0-16.087397-13.047154-26.063609-29.123294-26.063609l-78.434373 0 78.326926-78.399581c11.336186-11.369955 11.367909-29.803793 0-41.187051-11.369955-11.369955-29.830399-11.369955-41.202401 0l-106.792235 106.914008L341.777619 253.66021c-11.354606-11.369955-29.838585-11.369955-41.187051 0-11.369955 11.383258-11.352559 29.817096 0 41.187051l78.291111 78.399581-73.519434 0c-16.08842 0-29.128411 9.976212-29.128411 26.063609 0 16.090467 13.039991 29.155017 29.128411 29.155017l116.497271 0 0 61.33288L305.363268 489.798349c-16.08842 0-29.133527 9.976212-29.133527 26.062586 0 16.057721 13.046131 29.115108 29.133527 29.115108l116.497271 0 0 67.949578c0 16.108886 13.030781 29.134551 29.139667 29.134551 16.086373 0 29.133527-13.046131 29.133527-29.134551L480.133733 544.975019l116.513644 0c16.09149 0 29.116131-13.077853 29.116131-29.115108 0-16.10377-13.041014-26.062586-29.116131-26.062586l-116.513644 0 0-61.33288L596.667843 428.464445 596.667843 428.464445z" p-id="2613"></path></svg>