<?xml version="1.0" standalone="no"?><!DOCTYPE svg PUBLIC "-//W3C//DTD SVG 1.1//EN" "http://www.w3.org/Graphics/SVG/1.1/DTD/svg11.dtd"><svg t="1600222621335" class="icon" viewBox="0 0 1024 1024" version="1.1" xmlns="http://www.w3.org/2000/svg" p-id="1182" xmlns:xlink="http://www.w3.org/1999/xlink" width="200" height="200"><defs><style type="text/css"></style></defs><path d="M 161 161.6 l 0.1 -0.1 H 385 c 17.7 0 32 -14.3 32 -32 s -14.3 -32 -32 -32 H 161 c -35.2 0 -64 28.8 -64 64 v 224 c 0 17.7 14.3 32 32 32 s 32 -14.3 32 -32 V 161.6 Z M 863 97.5 H 639 c -17.7 0 -32 14.3 -32 32 s 14.3 32 32 32 h 223.9 l 0.1 0.1 v 223.9 c 0 17.7 14.3 32 32 32 s 32 -14.3 32 -32 v -224 c 0 -35.2 -28.8 -64 -64 -64 Z M 161 863.3 V 639.4 c 0 -17.7 -14.3 -32 -32 -32 s -32 14.3 -32 32 v 224 c 0 35.2 28.8 64 64 64 h 224 c 17.7 0 32 -14.3 32 -32 s -14.3 -32 -32 -32 H 161.1 s -0.1 0 -0.1 -0.1 Z M 863 863.4 l -0.1 0.1 H 639 c -17.7 0 -32 14.3 -32 32 s 14.3 32 32 32 h 224 c 35.2 0 64 -28.8 64 -64 v -224 c 0 -17.7 -14.3 -32 -32 -32 s -32 14.3 -32 32 v 223.9 Z M 264.7 697.7 c 5.8 4.3 12.5 6.4 19.2 6.4 c 9.7 0 19.3 -4.4 25.6 -12.8 l 121.2 -161.2 c 8.5 -11.4 8.6 -27 0.1 -38.4 L 312.5 333.6 c -10.6 -14.2 -30.6 -17.1 -44.8 -6.5 c -14.2 10.6 -17.1 30.6 -6.5 44.8 l 103.8 139 l -106.8 142 c -10.5 14.2 -7.7 34.2 6.5 44.8 Z" p-id="1183"></path><path d="M 594.7 491.8 L 476.5 333.6 c -10.6 -14.2 -30.6 -17.1 -44.8 -6.5 c -14.2 10.6 -17.1 30.6 -6.5 44.8 l 103.8 139 l -106.8 142 c -10.6 14.1 -7.8 34.2 6.3 44.8 c 5.8 4.3 12.5 6.4 19.2 6.4 c 9.7 0 19.3 -4.4 25.6 -12.8 l 121.2 -161.2 c 8.7 -11.3 8.7 -26.9 0.2 -38.3 Z" p-id="1184"></path><path d="M 643.5 691.4 l 121.2 -161.2 c 8.5 -11.4 8.6 -27 0.1 -38.4 L 646.5 333.6 c -10.6 -14.2 -30.6 -17.1 -44.8 -6.5 c -14.2 10.6 -17.1 30.6 -6.5 44.8 l 103.8 139 l -106.8 142 c -10.6 14.1 -7.8 34.2 6.3 44.8 c 5.8 4.3 12.5 6.4 19.2 6.4 c 9.9 0.1 19.5 -4.3 25.8 -12.7 Z" p-id="1185"></path></svg>