<?xml version="1.0" standalone="no"?><!DOCTYPE svg PUBLIC "-//W3C//DTD SVG 1.1//EN" "http://www.w3.org/Graphics/SVG/1.1/DTD/svg11.dtd"><svg t="1600223883952" class="icon" viewBox="0 0 1024 1024" version="1.1" xmlns="http://www.w3.org/2000/svg" p-id="5860" xmlns:xlink="http://www.w3.org/1999/xlink" width="200" height="200"><defs><style type="text/css"></style></defs><path d="M944.496894 909.515528 944.496894 909.515528c-31.801242-146.285714-139.925466-260.770186-279.850932-311.652174l0 0C760.049689 540.621118 830.012422 438.857143 830.012422 318.012422c0-171.726708-139.925466-318.012422-311.652174-318.012422S200.347826 139.925466 200.347826 318.012422c0 120.84472 63.602484 222.608696 165.36646 279.850932l0 0c-133.565217 50.881988-241.689441 165.36646-273.490683 305.291925 0 6.360248-6.360248 25.440994-6.360248 25.440994 0 50.881988 44.521739 95.403727 95.403727 95.403727l674.186335 0c50.881988 0 95.403727-44.521739 95.403727-95.403727C944.496894 915.875776 944.496894 909.515528 944.496894 909.515528zM270.310559 311.652174C270.310559 171.726708 378.434783 63.602484 512 63.602484s248.049689 108.124224 248.049689 248.049689S651.925466 553.341615 512 553.341615 270.310559 445.217391 270.310559 311.652174zM842.732919 954.037267 842.732919 954.037267 308.47205 954.037267l-127.204969 0c-19.080745 0-31.801242-12.720497-31.801242-31.801242 0 0 0-6.360248 0-6.360248C193.987578 756.869565 340.273292 636.024845 512 636.024845c171.726708 0 318.012422 120.84472 356.173913 279.850932l0 0c0 0 0 6.360248 0 6.360248C874.534161 941.31677 861.813665 954.037267 842.732919 954.037267z" p-id="5861"></path></svg>