<?xml version="1.0" standalone="no"?><!DOCTYPE svg PUBLIC "-//W3C//DTD SVG 1.1//EN" "http://www.w3.org/Graphics/SVG/1.1/DTD/svg11.dtd"><svg t="1600419557931" class="icon" viewBox="0 0 1024 1024" version="1.1" xmlns="http://www.w3.org/2000/svg" p-id="1860" xmlns:xlink="http://www.w3.org/1999/xlink" width="200" height="200"><defs><style type="text/css"></style></defs><path d="M475.428571 256v292.571429c0 21.942857 14.628571 36.571429 36.571429 36.571428s36.571429-14.628571 36.571429-36.571428v-292.571429c0-21.942857-14.628571-36.571429-36.571429-36.571429s-36.571429 14.628571-36.571429 36.571429zM512 658.285714c-21.942857 0-36.571429 14.628571-36.571429 36.571429s14.628571 36.571429 36.571429 36.571428 36.571429-14.628571 36.571429-36.571428S533.942857 658.285714 512 658.285714z m424.228571-577.828571C782.628571 21.942857 658.285714 0 512 0S241.371429 21.942857 87.771429 80.457143c-7.314286 7.314286-14.628571 14.628571-14.628572 29.257143v460.8c0 190.171429 270.628571 373.028571 431.542857 453.485714h14.628572c160.914286-80.457143 431.542857-263.314286 431.542857-453.485714V109.714286c0-14.628571-7.314286-21.942857-14.628572-29.257143zM877.714286 563.2c0 124.342857-182.857143 277.942857-365.714286 380.342857-182.857143-95.085714-365.714286-256-365.714286-380.342857V138.971429C270.628571 95.085714 380.342857 73.142857 512 73.142857s241.371429 21.942857 365.714286 65.828572v424.228571z" p-id="1861"></path></svg>